<svg version="1.1" id="Layer_1" xmlns="http://www.w3.org/2000/svg" xmlns:xlink="http://www.w3.org/1999/xlink" x="0px" y="0px"
	 width="100%" viewBox="0 0 512 512" enable-background="new 0 0 512 512" xml:space="preserve">
<path fill="#000000" opacity="1.000000" stroke="none" 
	d="
M333.000000,513.000000 
	C223.526596,513.000000 114.553169,512.980591 5.579857,513.085083 
	C1.981135,513.088562 0.891110,512.514038 0.893999,508.581879 
	C1.017266,340.789581 1.016378,172.997177 0.894030,5.204883 
	C0.891313,1.477932 1.807915,0.910906 5.293172,0.912976 
	C173.085510,1.012592 340.877899,1.010924 508.670258,0.922202 
	C512.050110,0.920415 513.116699,1.336988 513.113708,5.168301 
	C512.981995,173.127213 512.985474,341.086243 513.099976,509.045197 
	C513.102356,512.558350 512.284180,513.097351 508.956512,513.090271 
	C450.471191,512.965515 391.985565,513.000000 333.000000,513.000000 
z"/>
<path fill="#00FEA3" opacity="1.000000" stroke="none" 
	d="
M236.582855,219.092300 
	C235.493073,216.645599 233.453445,217.766586 231.842087,217.762085 
	C201.009048,217.675842 170.175705,217.698334 139.342422,217.698318 
	C137.529266,217.698318 135.716110,217.698334 133.944870,217.698334 
	C133.183655,215.642624 134.787231,214.769928 135.589081,213.661636 
	C162.712250,176.172638 189.880005,138.715897 217.003983,101.227478 
	C218.416046,99.275848 219.651917,97.841408 222.504562,97.851990 
	C255.670700,97.974991 288.837433,97.934532 322.003998,97.947433 
	C322.477722,97.947617 322.951416,98.076447 324.200165,98.257782 
	C313.795685,112.659393 303.629547,126.731102 292.927185,141.545013 
	C327.967560,141.545013 362.273865,141.545013 397.939178,141.545013 
	C354.407471,201.618408 311.626190,260.656189 268.793060,319.765503 
	C270.828979,321.299194 272.711945,320.661346 274.438385,320.663574 
	C309.771637,320.709290 345.105164,320.763763 380.437775,320.610077 
	C384.587646,320.591980 386.118713,321.283875 386.059875,325.958923 
	C385.772491,348.788574 385.874237,371.624146 385.993286,394.456818 
	C386.009949,397.650757 385.622131,399.093658 381.810730,399.088898 
	C290.977722,398.974792 200.144501,398.999817 109.311333,398.993042 
	C108.674438,398.992981 108.037544,398.903778 106.446297,398.784943 
	C150.003952,338.674530 193.200272,279.062744 236.582855,219.092300 
z"/>
</svg>